<?xml version="1.0" encoding="utf-8"?>
<svg version="1.1" id="facebook" xmlns="http://www.w3.org/2000/svg" xmlns:xlink="http://www.w3.org/1999/xlink" x="0px" y="0px"
	 viewBox="0 0 128 128" style="enable-background:new 0 0 128 128;" xml:space="preserve">
<style type="text/css">
	.st0{fill:#666666;}
</style>
<path class="st0" d="M71.8,32c-4.4,0-8,1.3-10.7,3.9c-2.7,2.6-4,6.3-4,11.1v8.4h-9.8v11.4h9.8V96H69V66.8h9.8l1.5-11.4H69v-7.3
	c0-1.8,0.4-3.2,1.2-4.2c0.8-0.9,2.3-1.4,4.5-1.4h6V32.5C78.5,32.2,75.6,32,71.8,32z M128,64c0,35.3-28.7,64-64,64S0,99.3,0,64
	S28.7,0,64,0S128,28.7,128,64z"/>
</svg>
