<?xml version="1.0" encoding="utf-8"?>
<svg version="1.1" id="google-plus-official" xmlns="http://www.w3.org/2000/svg" xmlns:xlink="http://www.w3.org/1999/xlink"
	 x="0px" y="0px" viewBox="0 0 128 128" style="enable-background:new 0 0 128 128;" xml:space="preserve">
<style type="text/css">
	.st0{fill:#666666;}
</style>
<path class="st0" d="M68,87.2C62.4,93,55,96,45.8,96c-8.8,0-16.4-3.2-22.6-9.4S13.8,72.8,13.8,64s3.2-16.4,9.4-22.6S36.8,32,45.8,32
	c8.2,0,15.4,2.8,21.4,8.4l-8.6,8.4c-3.4-3.2-7.6-5-12.8-5c-5.6,0-10.2,2-14,6S26,58.6,26,64s2,10.2,5.8,14.2s8.6,6,14,6
	c4.4,0,8.4-1.2,11.8-3.8s5.6-5.8,6.2-10h-18v-11H76c0.4,1.8,0.6,3.6,0.6,5.4C76.4,74,73.6,81.4,68,87.2z M105.2,77.8H96v-9.2h-9.2
	v-9.2H96v-9.2h9.2v9.2h9v9.2h-9V77.8z M119.4,31.8C113.6,22,106,14.4,96.2,8.6S75.6,0,64,0S41.6,2.8,31.8,8.6S14.4,22,8.6,31.8
	S0,52.4,0,64s2.8,22.4,8.6,32.2s13.4,17.6,23.2,23.2S52.4,128,64,128s22.4-2.8,32.2-8.6s17.6-13.4,23.2-23.2
	c5.8-9.8,8.6-20.6,8.6-32.2S125.2,41.6,119.4,31.8z"/>
</svg>
