<?xml version="1.0" encoding="utf-8"?>
<svg version="1.1" id="heroku" xmlns="http://www.w3.org/2000/svg" xmlns:xlink="http://www.w3.org/1999/xlink" x="0px" y="0px"
	 viewBox="0 0 128 128" style="enable-background:new 0 0 128 128;" xml:space="preserve">
<style type="text/css">
	.st0{fill:#666666;}
</style>
<path class="st0" d="M43.5,96l10.2-9.1l-10.2-9.1V96z M80.5,58.9c-1.8-1.9-5.2-4.1-10.8-4.1c-6.2,0-12.5,1.6-17.1,3.1V32h-9.1v39.6
	l6.4-2.9c0.1,0,10.5-4.7,19.8-4.7c4.6,0,5.6,2.6,5.7,4.7V96h9.1V68.6C84.5,68,84.4,62.9,80.5,58.9z M68.6,46.9h9.1
	c4.1-4.7,6.2-9.7,6.8-14.9h-9.1C74.4,37.2,72.1,42.1,68.6,46.9z M128,64c0,35.3-28.7,64-64,64S0,99.3,0,64S28.7,0,64,0
	S128,28.7,128,64z"/>
</svg>
