<?xml version="1.0" encoding="utf-8"?>
<svg version="1.1" id="twitter" xmlns="http://www.w3.org/2000/svg" xmlns:xlink="http://www.w3.org/1999/xlink" x="0px" y="0px"
	 viewBox="0 0 128 128" style="enable-background:new 0 0 128 128;" xml:space="preserve">
<style type="text/css">
	.st0{fill:#666666;}
</style>
<path class="st0" d="M103.4,39.6c-2.9,1.3-6,2.2-9.3,2.5c3.3-2,5.9-5.2,7.1-8.9c-3.1,1.9-6.6,3.2-10.3,3.9C88,34,83.8,32,79.2,32
	C70.2,32,63,39.2,63,48.2c0,1.3,0.1,2.5,0.4,3.7C50,51.2,38.1,44.7,30.1,35c-1.4,2.4-2.2,5.2-2.2,8.1c0,5.6,2.9,10.6,7.2,13.4
	c-2.6-0.1-5.1-0.8-7.3-2c0,0.1,0,0.1,0,0.2c0,7.8,5.6,14.4,13,15.8c-1.4,0.4-2.8,0.6-4.3,0.6c-1,0-2.1-0.1-3-0.3
	c2.1,6.4,8,11.1,15.1,11.2C43,86.4,36,89,28.5,89c-1.3,0-2.6-0.1-3.9-0.2c7.2,4.6,15.6,7.3,24.8,7.3c29.7,0,46-24.6,46-46
	c0-0.7,0-1.4,0-2.1C98.5,45.7,101.2,42.8,103.4,39.6z M128,64c0,35.3-28.7,64-64,64S0,99.3,0,64S28.7,0,64,0S128,28.7,128,64z"/>
</svg>
